<svg width="32" height="32" viewBox="0 0 32 32" fill="none" xmlns="http://www.w3.org/2000/svg">
<g clip-path="url(#clip0_172_259)">
<mask id="mask0_172_259" style="mask-type:luminance" maskUnits="userSpaceOnUse" x="0" y="0" width="32" height="32">
<path d="M32 0H0V32H32V0Z" fill="white"/>
</mask>
<g mask="url(#mask0_172_259)">
<path d="M19.3923 16.498C21.733 15.2727 23.333 12.8253 23.333 9.99996C23.333 5.94996 20.0497 2.66663 15.9997 2.66663C11.9497 2.66663 8.66635 5.94996 8.66635 9.99996C8.66635 12.8253 10.2663 15.2727 12.607 16.498C7.25968 18.06 3.33301 23.206 3.33301 29.3333H28.6663C28.6663 23.206 24.7397 18.06 19.3923 16.498ZM9.99968 9.99996C9.99968 6.69129 12.691 3.99996 15.9997 3.99996C19.3083 3.99996 21.9997 6.69129 21.9997 9.99996C21.9997 13.3087 19.3083 16 15.9997 16C12.691 16 9.99968 13.3087 9.99968 9.99996ZM15.9997 17.3333C21.823 17.3333 26.635 22.0087 27.2637 28H4.73568C5.36435 22.0087 10.1763 17.3333 15.9997 17.3333Z" fill="#33664F"/>
</g>
</g>
<defs>
<clipPath id="clip0_172_259">
<rect width="32" height="32" fill="white"/>
</clipPath>
</defs>
</svg>
