<svg width="32" height="32" viewBox="0 0 32 32" fill="none" xmlns="http://www.w3.org/2000/svg">
<g clip-path="url(#clip0_56_210)">
<path d="M19.3926 16.498C21.7333 15.2727 23.3333 12.8253 23.3333 9.99999C23.3333 5.94999 20.05 2.66666 16 2.66666C11.95 2.66666 8.66665 5.94999 8.66665 9.99999C8.66665 12.8253 10.2666 15.2727 12.6073 16.498C7.25998 18.06 3.33331 23.206 3.33331 29.3333H28.6666C28.6666 23.206 24.74 18.06 19.3926 16.498ZM9.99998 9.99999C9.99998 6.69132 12.6913 3.99999 16 3.99999C19.3086 3.99999 22 6.69132 22 9.99999C22 13.3087 19.3086 16 16 16C12.6913 16 9.99998 13.3087 9.99998 9.99999ZM16 17.3333C21.8233 17.3333 26.6353 22.0087 27.264 28H4.73598C5.36465 22.0087 10.1766 17.3333 16 17.3333Z" fill="black"/>
</g>
<defs>
<clipPath id="clip0_56_210">
<rect width="32" height="32" fill="white"/>
</clipPath>
</defs>
</svg>
