<svg width="50" height="50" viewBox="0 0 50 50" fill="none" xmlns="http://www.w3.org/2000/svg">
<g clip-path="url(#clip0_161_249)">
<path d="M50 25C50 11.1929 38.8071 0 25 0C11.1929 0 0 11.1929 0 25C0 38.8071 11.1929 50 25 50C38.8071 50 50 38.8071 50 25Z" fill="#33664F"/>
<path d="M36.0117 23.7832C37.0195 24.0645 37.875 24.3867 38.5781 24.75C39.293 25.1133 39.8906 25.4941 40.3711 25.8926C40.8633 26.2793 41.25 26.6777 41.5312 27.0879C41.8125 27.498 42.0293 27.8906 42.1816 28.2656C42.334 28.6406 42.4277 28.9922 42.4629 29.3203C42.5098 29.6367 42.5332 29.9062 42.5332 30.1289C42.5332 30.9492 42.375 31.6816 42.0586 32.3262C41.7539 32.9707 41.3379 33.5391 40.8105 34.0312C40.2832 34.5234 39.668 34.9395 38.9648 35.2793C38.2734 35.6191 37.5469 35.8945 36.7852 36.1055C36.0234 36.3281 35.2441 36.4863 34.4473 36.5801C33.6504 36.6855 32.8945 36.7383 32.1797 36.7383C31.0195 36.7383 29.8184 36.6211 28.5762 36.3867C27.3457 36.1523 26.0977 35.7715 24.832 35.2441C24.5508 35.127 24.4102 34.9219 24.4102 34.6289C24.4102 34.4297 24.4805 34.2715 24.6211 34.1543C24.7617 34.0254 24.9141 33.9609 25.0781 33.9609C25.1602 33.9609 25.248 33.9785 25.3418 34.0137C26.4316 34.4707 27.5508 34.8164 28.6992 35.0508C29.8477 35.2852 31.002 35.4023 32.1621 35.4023C33.7441 35.4023 35.1035 35.25 36.2402 34.9453C37.377 34.6406 38.3086 34.2422 39.0352 33.75C39.7734 33.2461 40.3184 32.6836 40.6699 32.0625C41.0215 31.4297 41.1973 30.791 41.1973 30.1465C41.1973 29.4316 40.998 28.7695 40.5996 28.1602C40.2129 27.5508 39.6562 27.0059 38.9297 26.5254C38.2148 26.0449 37.3535 25.6348 36.3457 25.2949C35.3379 24.9551 34.2188 24.7031 32.9883 24.5391C32.1797 24.6797 31.3945 24.7793 30.6328 24.8379C29.8711 24.8965 29.168 24.9258 28.5234 24.9258H28.1191C28.0371 24.9258 27.9609 24.9199 27.8906 24.9082C27.0469 26.9355 26.0391 28.6875 24.8672 30.1641C23.707 31.6406 22.4648 32.8652 21.1406 33.8379C19.8281 34.7988 18.4746 35.5137 17.0801 35.9824C15.6973 36.4395 14.3672 36.668 13.0898 36.668C11.7656 36.668 10.5469 36.4805 9.43359 36.1055C8.33203 35.7422 7.38281 35.2207 6.58594 34.541C5.78906 33.8613 5.16797 33.041 4.72266 32.0801C4.27734 31.1074 4.05469 30.0234 4.05469 28.8281C4.05469 27.5859 4.29492 26.3027 4.77539 24.9785C5.26758 23.6426 5.99414 22.2891 6.95508 20.918C7.86914 19.6289 8.88281 18.4746 9.99609 17.4551C11.1094 16.4238 12.2754 15.5215 13.4941 14.748C14.7246 13.9746 15.9902 13.3125 17.291 12.7617C18.5918 12.2109 19.8809 11.7598 21.1582 11.4082C22.4473 11.0566 23.7012 10.8047 24.9199 10.6523C26.1504 10.4883 27.3047 10.4062 28.3828 10.4062C29.2617 10.4062 30.0996 10.4355 30.8965 10.4941C31.6934 10.5527 32.4551 10.6406 33.1816 10.7578C33.6035 10.2891 33.9434 9.95508 34.2012 9.75586C34.459 9.54492 34.6055 9.42773 34.6406 9.4043C34.7812 9.33398 34.9043 9.29883 35.0098 9.29883C35.1738 9.29883 35.3203 9.3457 35.4492 9.43945C35.5781 9.5332 35.6426 9.66797 35.6426 9.84375C35.6426 10.0781 35.5605 10.2773 35.3965 10.4414C35.2324 10.5938 35.0098 10.8047 34.7285 11.0742C36.873 11.6016 38.5137 12.3984 39.6504 13.4648C40.7871 14.5195 41.3555 15.8262 41.3555 17.3848C41.3555 18.2402 41.2148 19.0078 40.9336 19.6875C40.6523 20.3672 40.2656 20.9648 39.7734 21.4805C39.293 21.9961 38.7246 22.4473 38.0684 22.834C37.4238 23.209 36.7383 23.5254 36.0117 23.7832ZM33.0059 23.2031C33.5215 23.1094 34.0488 22.9863 34.5879 22.834C35.1387 22.6816 35.6719 22.5 36.1875 22.2891C36.7148 22.0664 37.2129 21.8086 37.6816 21.5156C38.1504 21.2109 38.5547 20.8594 38.8945 20.4609C39.2461 20.0508 39.5215 19.5938 39.7207 19.0898C39.9316 18.5859 40.0371 18.0117 40.0371 17.3672C40.0371 16.0547 39.4922 14.9707 38.4023 14.1152C37.3125 13.2598 35.748 12.627 33.709 12.2168C33.123 12.9434 32.5723 13.7461 32.0566 14.625C31.541 15.5039 31.0664 16.418 30.6328 17.3672C30.1992 18.3047 29.8066 19.2598 29.4551 20.2324C29.1152 21.1934 28.834 22.125 28.6113 23.0273C28.8457 23.0156 29.0625 23.0098 29.2617 23.0098C29.4609 23.0098 29.6309 23.0098 29.7715 23.0098C30.2285 23.0098 30.7266 23.0273 31.2656 23.0625C31.8047 23.0859 32.3848 23.1328 33.0059 23.2031ZM32.2148 11.9707C31.6172 11.8887 31.002 11.8301 30.3691 11.7949C29.7363 11.7598 29.0742 11.7422 28.3828 11.7422C27.3516 11.7422 26.2559 11.8184 25.0957 11.9707C23.9355 12.123 22.7461 12.3633 21.5273 12.6914C20.3086 13.0195 19.0781 13.4473 17.8359 13.9746C16.6055 14.4902 15.4043 15.1172 14.2324 15.8555C13.0723 16.582 11.9648 17.4316 10.9102 18.4043C9.85547 19.377 8.89453 20.4727 8.02734 21.6914C7.14844 22.9336 6.48633 24.1582 6.04102 25.3652C5.5957 26.5723 5.37305 27.7207 5.37305 28.8105C5.37305 29.8301 5.55469 30.7441 5.91797 31.5527C6.29297 32.3613 6.82031 33.0469 7.5 33.6094C8.17969 34.1602 8.99414 34.5879 9.94336 34.8926C10.8926 35.1855 11.9414 35.332 13.0898 35.332C14.2383 35.332 15.4336 35.127 16.6758 34.7168C17.918 34.2949 19.1309 33.6562 20.3145 32.8008C21.498 31.9336 22.623 30.8438 23.6895 29.5312C24.7559 28.207 25.6875 26.6367 26.4844 24.8203C26.2734 24.8203 26.0566 24.7617 25.834 24.6445C25.6113 24.5156 25.5 24.3164 25.5 24.0469C25.5 23.7656 25.6348 23.5664 25.9043 23.4492C26.1738 23.3203 26.5957 23.2148 27.1699 23.1328C27.4863 22.1719 27.8086 21.2109 28.1367 20.25C28.4648 19.2891 28.8281 18.3398 29.2266 17.4023C29.625 16.4648 30.0645 15.5449 30.5449 14.6426C31.0254 13.7285 31.582 12.8379 32.2148 11.9707Z" fill="white"/>
</g>
<defs>
<clipPath id="clip0_161_249">
<rect width="50" height="50" fill="white"/>
</clipPath>
</defs>
</svg>
