<svg width="32" height="32" viewBox="0 0 32 32" fill="none" xmlns="http://www.w3.org/2000/svg">
<g clip-path="url(#clip0_172_253)">
<mask id="mask0_172_253" style="mask-type:luminance" maskUnits="userSpaceOnUse" x="0" y="0" width="32" height="32">
<path d="M32 0H0V32H32V0Z" fill="white"/>
</mask>
<g mask="url(#mask0_172_253)">
<path d="M2.66699 26.6667C2.66699 28.1333 3.86699 29.3333 5.33365 29.3333H26.667C28.1337 29.3333 29.3337 28.1333 29.3337 26.6667V9.33337H23.2063C22.577 5.92537 19.5883 3.33337 16.0003 3.33337C12.4123 3.33337 9.42365 5.92537 8.79432 9.33337H2.66699V26.6667ZM16.0003 4.66671C18.8503 4.66671 21.237 6.66537 21.8457 9.33337H10.155C10.7637 6.66537 13.1503 4.66671 16.0003 4.66671ZM8.66699 10.6667V14.6667H10.0003V10.6667H22.0003V14.6667H23.3337V10.6667H28.0003V26.6667C28.0003 27.402 27.4023 28 26.667 28H5.33365C4.59832 28 4.00032 27.402 4.00032 26.6667V10.6667H8.66699Z" fill="#33664F"/>
</g>
</g>
<defs>
<clipPath id="clip0_172_253">
<rect width="32" height="32" fill="white"/>
</clipPath>
</defs>
</svg>
