<svg width="32" height="32" viewBox="0 0 32 32" fill="none" xmlns="http://www.w3.org/2000/svg">
<g clip-path="url(#clip0_56_201)">
<path d="M2.66669 26.6667C2.66669 28.1333 3.86669 29.3333 5.33335 29.3333H26.6667C28.1334 29.3333 29.3334 28.1333 29.3334 26.6667V9.33334H23.206C22.5767 5.92534 19.588 3.33334 16 3.33334C12.412 3.33334 9.42335 5.92534 8.79402 9.33334H2.66669V26.6667ZM16 4.66668C18.85 4.66668 21.2367 6.66534 21.8454 9.33334H10.1547C10.7634 6.66534 13.15 4.66668 16 4.66668ZM8.66669 10.6667V14.6667H10V10.6667H22V14.6667H23.3334V10.6667H28V26.6667C28 27.402 27.402 28 26.6667 28H5.33335C4.59802 28 4.00002 27.402 4.00002 26.6667V10.6667H8.66669Z" fill="black"/>
</g>
<defs>
<clipPath id="clip0_56_201">
<rect width="32" height="32" fill="white"/>
</clipPath>
</defs>
</svg>
